<svg xmlns="http://www.w3.org/2000/svg" xmlns:xlink="http://www.w3.org/1999/xlink" width="800" zoomAndPan="magnify" viewBox="0 0 600 449.999984" height="600" preserveAspectRatio="xMidYMid meet" version="1.0"><defs><g/><clipPath id="e76505db5a"><path d="M 172.9375 130 L 412.9375 130 L 412.9375 290.785156 L 172.9375 290.785156 Z M 172.9375 130 " clip-rule="nonzero"/></clipPath><clipPath id="9e97ce255d"><path d="M 199 110.785156 L 293 110.785156 L 293 258 L 199 258 Z M 199 110.785156 " clip-rule="nonzero"/></clipPath><clipPath id="1f69e92df7"><path d="M 292 110.785156 L 387 110.785156 L 387 258 L 292 258 Z M 292 110.785156 " clip-rule="nonzero"/></clipPath></defs><g clip-path="url(#e76505db5a)"><path fill="#226699" d="M 386.269531 130.785156 L 199.605469 130.785156 C 184.878906 130.785156 172.9375 142.726562 172.9375 157.453125 L 172.9375 257.453125 C 172.9375 272.179688 184.878906 284.117188 199.605469 284.117188 L 275.710938 284.117188 C 279.175781 288.089844 285.558594 290.785156 292.9375 290.785156 C 300.316406 290.785156 306.703125 288.089844 310.164062 284.117188 L 386.269531 284.117188 C 400.996094 284.117188 412.9375 272.179688 412.9375 257.453125 L 412.9375 157.453125 C 412.9375 142.726562 400.996094 130.785156 386.269531 130.785156 Z M 386.269531 130.785156 " fill-opacity="1" fill-rule="nonzero"/></g><path fill="#292f33" d="M 306.269531 264.117188 C 306.269531 271.476562 300.296875 277.453125 292.9375 277.453125 C 285.578125 277.453125 279.605469 271.476562 279.605469 264.117188 L 279.605469 144.117188 C 279.605469 136.757812 285.578125 130.785156 292.9375 130.785156 C 300.296875 130.785156 306.269531 136.757812 306.269531 144.117188 Z M 306.269531 264.117188 " fill-opacity="1" fill-rule="nonzero"/><path fill="#99aab5" d="M 292.9375 257.453125 C 292.9375 264.8125 286.964844 270.785156 279.605469 270.785156 L 199.605469 270.785156 C 192.242188 270.785156 186.269531 264.8125 186.269531 257.453125 L 186.269531 137.453125 C 186.269531 130.089844 192.242188 124.117188 199.605469 124.117188 L 279.605469 124.117188 C 286.964844 124.117188 292.9375 130.089844 292.9375 137.453125 Z M 292.9375 257.453125 " fill-opacity="1" fill-rule="nonzero"/><g clip-path="url(#9e97ce255d)"><path fill="#e1e8ed" d="M 292.9375 257.453125 C 286.277344 244.132812 268.558594 244.117188 266.269531 244.117188 C 252.9375 244.117188 232.9375 257.453125 212.9375 257.453125 C 206.269531 257.453125 199.605469 251.476562 199.605469 244.117188 L 199.605469 137.453125 C 199.605469 130.089844 206.269531 124.117188 212.9375 124.117188 C 234.636719 124.117188 252.9375 110.785156 266.269531 110.785156 C 286.269531 110.785156 292.9375 123.425781 292.9375 130.785156 Z M 292.9375 257.453125 " fill-opacity="1" fill-rule="nonzero"/></g><path fill="#99aab5" d="M 399.605469 257.453125 C 399.605469 264.8125 393.628906 270.785156 386.269531 270.785156 L 306.269531 270.785156 C 298.910156 270.785156 292.9375 264.8125 292.9375 257.453125 L 292.9375 137.453125 C 292.9375 130.089844 298.910156 124.117188 306.269531 124.117188 L 386.269531 124.117188 C 393.628906 124.117188 399.605469 130.089844 399.605469 137.453125 Z M 399.605469 257.453125 " fill-opacity="1" fill-rule="nonzero"/><g clip-path="url(#1f69e92df7)"><path fill="#ccd6dd" d="M 292.9375 257.453125 C 299.597656 244.132812 317.316406 244.117188 319.605469 244.117188 C 332.9375 244.117188 352.9375 257.453125 372.9375 257.453125 C 379.605469 257.453125 386.269531 251.476562 386.269531 244.117188 L 386.269531 137.453125 C 386.269531 130.089844 379.605469 124.117188 372.9375 124.117188 C 351.230469 124.117188 332.9375 110.785156 319.605469 110.785156 C 299.605469 110.785156 292.9375 123.425781 292.9375 130.785156 Z M 292.9375 257.453125 " fill-opacity="1" fill-rule="nonzero"/></g><g fill="#54524d" fill-opacity="1"><g transform="translate(205.031246, 190.838918)"><g><path d="M 59.515625 -66.328125 C 59.984375 -66.328125 60.5 -66.003906 61.0625 -65.359375 C 62.394531 -65.617188 64.003906 -65.851562 65.890625 -66.0625 C 68.484375 -66.0625 70.179688 -65.046875 70.984375 -63.015625 L 71.109375 -62.171875 L 71.109375 -61.90625 C 71.109375 -59.394531 69.320312 -57.742188 65.75 -56.953125 C 64.28125 -56.648438 63.351562 -56.5 62.96875 -56.5 L 62.96875 -52.78125 C 62.96875 -51.425781 62.742188 -50.234375 62.296875 -49.203125 L 62.4375 -49.203125 C 65.0625 -49.554688 68.796875 -49.773438 73.640625 -49.859375 C 79.160156 -49.597656 81.921875 -49.226562 81.921875 -48.75 C 83.484375 -47.988281 84.265625 -46.835938 84.265625 -45.296875 C 84.265625 -43.347656 82.523438 -41.875 79.046875 -40.875 L 78.0625 -40.734375 C 76.851562 -40.859375 76.25 -41.097656 76.25 -41.453125 C 76.25 -42.066406 77.222656 -43.347656 79.171875 -45.296875 L 79.171875 -45.4375 C 77.398438 -46.644531 74.816406 -47.25 71.421875 -47.25 L 68.71875 -47.25 C 62.550781 -47.25 52.972656 -45.945312 39.984375 -43.34375 C 39.035156 -43.257812 38.296875 -43.21875 37.765625 -43.21875 L 37.640625 -43.21875 C 37.171875 -43.21875 36.890625 -43.347656 36.796875 -43.609375 L 36.796875 -44.1875 C 36.796875 -44.394531 39.007812 -45.132812 43.4375 -46.40625 C 49.84375 -47.789062 54.003906 -48.484375 55.921875 -48.484375 C 55.273438 -48.984375 54.863281 -51.523438 54.6875 -56.109375 C 50.164062 -57.109375 47.90625 -58.4375 47.90625 -60.09375 C 47.90625 -61.625 50.859375 -63.054688 56.765625 -64.390625 C 57.617188 -65.679688 58.535156 -66.328125 59.515625 -66.328125 Z M 19.96875 -60.265625 C 26.3125 -59.378906 29.484375 -57.253906 29.484375 -53.890625 L 29.484375 -53.484375 C 29.484375 -51.515625 28.378906 -50.128906 26.171875 -49.328125 C 25.492188 -49.148438 24.859375 -49.0625 24.265625 -49.0625 C 21.753906 -49.0625 19.394531 -50.125 17.1875 -52.25 C 16 -53.664062 15.40625 -55.097656 15.40625 -56.546875 C 15.40625 -58.460938 15.820312 -59.421875 16.65625 -59.421875 C 17.945312 -59.984375 19.050781 -60.265625 19.96875 -60.265625 Z M 18.46875 -42.28125 C 21.03125 -42.28125 22.3125 -40.304688 22.3125 -36.359375 L 22.3125 -32.90625 C 22.3125 -31.84375 21.851562 -27.320312 20.9375 -19.34375 L 20.9375 -16.609375 C 20.9375 -16.460938 21.203125 -16.222656 21.734375 -15.890625 L 22.3125 -15.890625 C 22.613281 -15.890625 24.640625 -17.128906 28.390625 -19.609375 C 31.628906 -21.085938 33.753906 -21.828125 34.765625 -21.828125 C 35.171875 -21.828125 35.492188 -21.503906 35.734375 -20.859375 C 35.117188 -19.054688 33.316406 -16.488281 30.328125 -13.15625 C 26.960938 -9.632812 24.289062 -7.875 22.3125 -7.875 L 22.1875 -7.875 C 19 -7.875 16.875 -9.570312 15.8125 -12.96875 L 15.8125 -13.6875 L 16.65625 -21.4375 C 17.738281 -27.957031 18.28125 -31.957031 18.28125 -33.4375 L 18.28125 -35.515625 C 18.28125 -35.984375 18.238281 -36.675781 18.15625 -37.59375 L 17.890625 -37.59375 C 17.617188 -37.59375 15.6875 -36.941406 12.09375 -35.640625 C 11.351562 -35.378906 10.566406 -35.25 9.734375 -35.25 L 9.03125 -35.25 C 8.03125 -35.425781 7.53125 -35.882812 7.53125 -36.625 C 7.53125 -37.738281 9.960938 -39.390625 14.828125 -41.578125 C 15.984375 -42.046875 17.195312 -42.28125 18.46875 -42.28125 Z M 50.75 -41.984375 C 57.65625 -41.210938 61.109375 -39 61.109375 -35.34375 C 61.109375 -33.03125 59.691406 -31.695312 56.859375 -31.34375 L 56.71875 -31.34375 C 54.125 -31.34375 51.304688 -32.765625 48.265625 -35.609375 C 47.523438 -36.816406 47.15625 -37.878906 47.15625 -38.796875 L 47.15625 -39.234375 C 47.15625 -40.535156 48.039062 -41.453125 49.8125 -41.984375 Z M 64.03125 -39.234375 L 64.421875 -39.234375 C 64.929688 -38.734375 65.453125 -37.390625 65.984375 -35.203125 C 66.890625 -29.296875 67.34375 -25.5625 67.34375 -24 L 67.34375 -23.734375 C 67.34375 -22.378906 67.210938 -20.90625 66.953125 -19.3125 L 67.078125 -19.3125 C 67.671875 -19.3125 71.394531 -19.765625 78.25 -20.671875 L 84.484375 -21.125 C 84.835938 -20.707031 85.015625 -20.46875 85.015625 -20.40625 L 85.015625 -19.875 C 85.015625 -17.957031 79.820312 -16.441406 69.4375 -15.328125 C 67.507812 -14.765625 66.359375 -14.394531 65.984375 -14.21875 C 64.585938 -7.28125 62.648438 -2.394531 60.171875 0.4375 C 58.523438 2.007812 57.050781 2.796875 55.75 2.796875 C 54.625 2.796875 53.972656 2.335938 53.796875 1.421875 L 53.796875 1.015625 C 53.796875 0.273438 54.992188 -1.800781 57.390625 -5.21875 C 59.421875 -9.65625 60.4375 -12.328125 60.4375 -13.234375 L 60.3125 -13.234375 C 51.039062 -12.203125 45.695312 -11.6875 44.28125 -11.6875 C 39.757812 -11.6875 37.5 -12.484375 37.5 -14.078125 L 37.5 -14.21875 C 37.5 -14.957031 38.328125 -15.632812 39.984375 -16.25 L 40.515625 -15.71875 C 42.847656 -15.71875 49.90625 -16.78125 61.6875 -18.90625 C 61.976562 -18.90625 62.390625 -20.972656 62.921875 -25.109375 C 63.484375 -28.203125 63.851562 -32.21875 64.03125 -37.15625 C 63.851562 -38.300781 63.765625 -38.9375 63.765625 -39.0625 Z M 49.375 -29.265625 C 52.53125 -29.265625 54.65625 -28.441406 55.75 -26.796875 C 56.007812 -26.140625 56.140625 -25.53125 56.140625 -24.96875 C 56.140625 -23.050781 54.898438 -21.898438 52.421875 -21.515625 C 49.617188 -21.785156 47.6875 -22.203125 46.625 -22.765625 C 44.675781 -23.796875 43.703125 -24.945312 43.703125 -26.21875 L 43.703125 -26.796875 C 43.703125 -27.941406 44.898438 -28.722656 47.296875 -29.140625 C 47.765625 -29.140625 48.457031 -29.179688 49.375 -29.265625 Z M 73.546875 -8.015625 L 73.6875 -8.015625 C 74.332031 -7.367188 74.847656 -7.046875 75.234375 -7.046875 C 76.003906 -7.484375 76.921875 -7.703125 77.984375 -7.703125 L 78.109375 -7.703125 C 80.296875 -7.703125 81.816406 -6.507812 82.671875 -4.125 C 82.765625 -3.769531 82.8125 -3.398438 82.8125 -3.015625 C 82.8125 -0.585938 81.390625 0.785156 78.546875 1.109375 C 76.191406 1.109375 74.613281 -0.175781 73.8125 -2.75 C 73.726562 -3.25 73.6875 -3.660156 73.6875 -3.984375 C 73.894531 -5.109375 74 -5.710938 74 -5.796875 C 73.519531 -6.804688 73.28125 -7.441406 73.28125 -7.703125 C 73.3125 -7.910156 73.398438 -8.015625 73.546875 -8.015625 Z M 73.546875 -8.015625 "/></g></g></g><g fill="#54524d" fill-opacity="1"><g transform="translate(279.828095, 229.969159)"><g><path d="M 37.328125 -72.5625 L 38.859375 -72.5625 C 39.835938 -72.5625 40.984375 -69.644531 42.296875 -63.8125 C 46.785156 -64.601562 50.847656 -65 54.484375 -65 C 60.210938 -65 63.765625 -62.523438 65.140625 -57.578125 C 65.367188 -56.066406 65.484375 -54.753906 65.484375 -53.640625 C 65.484375 -50.722656 64.335938 -47.15625 62.046875 -42.9375 L 62.1875 -42.9375 C 65.007812 -43.488281 67.910156 -43.765625 70.890625 -43.765625 C 74.878906 -43.765625 77.238281 -42.015625 77.96875 -38.515625 C 78.519531 -36.972656 78.796875 -34.941406 78.796875 -32.421875 C 78.796875 -28.191406 77.257812 -23.148438 74.1875 -17.296875 C 72.15625 -13.984375 69.695312 -12.328125 66.8125 -12.328125 L 66.125 -12.328125 C 63.695312 -12.328125 61.828125 -14.519531 60.515625 -18.90625 L 60.859375 -19.109375 C 62.429688 -17.960938 63.925781 -16.960938 65.34375 -16.109375 C 69.332031 -16.109375 72.394531 -21.644531 74.53125 -32.71875 C 74.625 -34.03125 74.671875 -34.960938 74.671875 -35.515625 C 74.671875 -38.828125 73.800781 -40.484375 72.0625 -40.484375 C 67.414062 -40.484375 62.046875 -39.429688 55.953125 -37.328125 L 43.125 -33.546875 L 43.125 -32.578125 C 43.125 -30.410156 42.734375 -22.515625 41.953125 -8.890625 C 42.085938 -4.660156 42.15625 -2.300781 42.15625 -1.8125 C 42.15625 0.144531 40.988281 1.453125 38.65625 2.109375 L 37.53125 2.109375 C 35.925781 2.109375 34.710938 1.015625 33.890625 -1.171875 L 33.890625 -1.328125 C 34.546875 -16.453125 34.875 -26.328125 34.875 -30.953125 C 28.6875 -28.753906 24.460938 -27.65625 22.203125 -27.65625 C 19.253906 -27.914062 17.78125 -29.015625 17.78125 -30.953125 L 17.78125 -31.09375 C 17.78125 -31.84375 18.382812 -32.726562 19.59375 -33.75 L 20.09375 -33.75 C 20.09375 -32.863281 20.75 -32.421875 22.0625 -32.421875 C 23.007812 -32.421875 27.347656 -33.519531 35.078125 -35.71875 C 35.273438 -44.976562 35.375 -50.300781 35.375 -51.6875 C 31.863281 -51.125 29.617188 -50.84375 28.640625 -50.84375 L 27.8125 -50.84375 C 24.726562 -51.238281 23.1875 -52.5 23.1875 -54.625 C 23.1875 -56.5625 25.445312 -58.148438 29.96875 -59.390625 C 30.59375 -59.785156 32.507812 -60.488281 35.71875 -61.5 L 35.71875 -63.671875 C 35.71875 -65.242188 35.664062 -67.046875 35.5625 -69.078125 C 35.5625 -70.640625 36.148438 -71.800781 37.328125 -72.5625 Z M 79.625 -69.421875 C 81.988281 -69.421875 84.957031 -68.109375 88.53125 -65.484375 C 89.707031 -64.078125 90.296875 -62.375 90.296875 -60.375 C 90.296875 -57.882812 88.769531 -56.066406 85.71875 -54.921875 C 85.132812 -54.828125 84.578125 -54.78125 84.046875 -54.78125 C 80.773438 -54.78125 78.15625 -57.628906 76.1875 -63.328125 C 76.1875 -63.453125 76.125 -64.007812 76 -65 L 76.1875 -66.953125 C 76.0625 -67.515625 76 -68.054688 76 -68.578125 C 76 -68.910156 77.207031 -69.191406 79.625 -69.421875 Z M 42.78125 -53.796875 C 43.007812 -48.523438 43.125 -43.203125 43.125 -37.828125 L 43.28125 -37.828125 L 51.34375 -40.140625 C 51.113281 -40.921875 51 -41.523438 51 -41.953125 C 51 -43.296875 52.375 -47.40625 55.125 -54.28125 L 55.265625 -54.921875 L 54.96875 -55.125 C 51.664062 -55.125 47.601562 -54.679688 42.78125 -53.796875 Z M 42.78125 -53.796875 "/></g></g></g><g fill="#54524d" fill-opacity="1"><g transform="translate(202.74468, 218.618137)"><g><path d="M 3.921875 -5.425781 C 3.921875 -7.042969 3.921875 -8.464844 3.964844 -9.882812 L 4.992188 -9.882812 C 6.496094 -9.882812 7.253906 -9.109375 7.253906 -7.746094 C 7.253906 -6.4375 6.550781 -5.425781 4.949219 -5.425781 Z M 9.125 -0.589844 L 8.546875 -2.953125 C 8.265625 -4.261719 7.773438 -4.949219 6.257812 -5.160156 C 8.308594 -5.484375 9.136719 -6.566406 9.136719 -7.761719 C 9.136719 -9.433594 7.789062 -10.429688 5.382812 -10.429688 L 0.632812 -10.429688 L 0.632812 -9.925781 L 1.96875 -9.800781 C 1.996094 -8.378906 1.996094 -6.960938 1.996094 -5.554688 L 1.996094 -4.863281 C 1.996094 -3.429688 1.996094 -2.011719 1.96875 -0.617188 L 0.632812 -0.492188 L 0.632812 0 L 5.328125 0 L 5.328125 -0.492188 L 3.964844 -0.617188 C 3.921875 -2.011719 3.921875 -3.429688 3.921875 -4.90625 L 4.695312 -4.90625 C 5.863281 -4.90625 6.257812 -4.429688 6.496094 -3.261719 L 7 -1.097656 C 7.15625 -0.140625 7.761719 0.183594 8.898438 0.183594 C 9.519531 0.183594 9.910156 0.125 10.363281 0 L 10.363281 -0.492188 Z M 9.125 -0.589844 "/></g></g></g><g fill="#54524d" fill-opacity="1"><g transform="translate(213.595484, 218.618137)"><g><path d="M 8.042969 -2.824219 L 7.492188 -0.578125 L 3.992188 -0.578125 C 3.949219 -2.011719 3.949219 -3.457031 3.949219 -5.046875 L 6.074219 -5.046875 L 6.269531 -3.570312 L 6.929688 -3.570312 L 6.929688 -7.113281 L 6.269531 -7.113281 L 6.058594 -5.582031 L 3.949219 -5.582031 C 3.949219 -7.058594 3.949219 -8.464844 3.992188 -9.839844 L 7.210938 -9.839844 L 7.746094 -7.675781 L 8.503906 -7.675781 L 8.492188 -10.429688 L 0.632812 -10.429688 L 0.632812 -9.925781 L 1.96875 -9.800781 C 1.996094 -8.378906 1.996094 -6.960938 1.996094 -5.554688 L 1.996094 -4.863281 C 1.996094 -3.429688 1.996094 -2.011719 1.96875 -0.617188 L 0.632812 -0.492188 L 0.632812 0 L 8.773438 0 L 8.816406 -2.824219 Z M 8.042969 -2.824219 "/></g></g></g><g fill="#54524d" fill-opacity="1"><g transform="translate(223.335923, 218.618137)"><g><path d="M 3.066406 -3.894531 L 4.554688 -8.714844 L 6.101562 -3.894531 Z M 9.167969 -0.617188 L 5.804688 -10.472656 L 4.582031 -10.472656 L 1.378906 -0.660156 L 0.167969 -0.492188 L 0.167969 0 L 3.457031 0 L 3.457031 -0.492188 L 2.082031 -0.660156 L 2.910156 -3.375 L 6.269531 -3.375 L 7.15625 -0.648438 L 5.792969 -0.492188 L 5.792969 0 L 10.332031 0 L 10.332031 -0.492188 Z M 9.167969 -0.617188 "/></g></g></g><g fill="#54524d" fill-opacity="1"><g transform="translate(234.172674, 218.618137)"><g><path d="M 3.992188 -0.546875 C 3.949219 -1.980469 3.949219 -3.445312 3.949219 -5.046875 L 3.949219 -5.511719 C 3.949219 -7 3.949219 -8.464844 3.992188 -9.882812 L 4.949219 -9.882812 C 7.101562 -9.882812 8.363281 -8.238281 8.363281 -5.214844 C 8.363281 -2.277344 7.101562 -0.546875 4.851562 -0.546875 Z M 0.632812 -10.429688 L 0.632812 -9.925781 L 1.96875 -9.800781 C 1.996094 -8.378906 1.996094 -6.960938 1.996094 -5.511719 L 1.996094 -5.046875 C 1.996094 -3.457031 1.996094 -2.011719 1.96875 -0.617188 L 0.632812 -0.492188 L 0.632812 0 L 4.90625 0 C 8.28125 0 10.429688 -1.953125 10.429688 -5.230469 C 10.429688 -8.492188 8.433594 -10.429688 5.160156 -10.429688 Z M 0.632812 -10.429688 "/></g></g></g><g fill="#54524d" fill-opacity="1"><g transform="translate(245.627854, 218.618137)"><g><path d="M 5.328125 -9.925781 L 5.328125 -10.429688 L 0.632812 -10.429688 L 0.632812 -9.925781 L 1.96875 -9.800781 C 1.996094 -8.378906 1.996094 -6.960938 1.996094 -5.554688 L 1.996094 -4.863281 C 1.996094 -3.429688 1.996094 -2.011719 1.96875 -0.617188 L 0.632812 -0.492188 L 0.632812 0 L 5.328125 0 L 5.328125 -0.492188 L 3.992188 -0.617188 C 3.949219 -2.023438 3.949219 -3.457031 3.949219 -4.863281 L 3.949219 -5.554688 C 3.949219 -6.988281 3.949219 -8.394531 3.992188 -9.800781 Z M 5.328125 -9.925781 "/></g></g></g><g fill="#54524d" fill-opacity="1"><g transform="translate(251.924744, 218.618137)"><g><path d="M 10.953125 -10.429688 L 7.15625 -10.429688 L 7.15625 -9.925781 L 8.96875 -9.730469 L 9.011719 -2.785156 L 3.5 -10.429688 L 0.535156 -10.429688 L 0.535156 -9.925781 L 1.601562 -9.800781 L 1.828125 -9.503906 L 1.757812 -0.660156 L 0.449219 -0.492188 L 0.449219 0 L 4.246094 0 L 4.246094 -0.492188 L 2.445312 -0.675781 L 2.402344 -8.6875 L 8.617188 0.0546875 L 9.589844 0.0546875 L 9.660156 -9.742188 L 10.953125 -9.925781 Z M 10.953125 -10.429688 "/></g></g></g><g fill="#54524d" fill-opacity="1"><g transform="translate(263.731308, 218.618137)"><g><path d="M 10.445312 -5.0625 L 6.03125 -5.0625 L 6.03125 -4.570312 L 7.578125 -4.414062 C 7.605469 -3.402344 7.621094 -2.417969 7.621094 -1.390625 L 7.621094 -0.476562 C 7.210938 -0.367188 6.804688 -0.308594 6.339844 -0.308594 C 4.261719 -0.308594 2.769531 -2.152344 2.769531 -5.214844 C 2.769531 -8.449219 4.316406 -10.109375 6.425781 -10.109375 C 6.929688 -10.109375 7.367188 -10.023438 7.789062 -9.8125 L 8.378906 -7.480469 L 9.207031 -7.480469 L 9.238281 -9.910156 C 8.363281 -10.417969 7.410156 -10.683594 6.171875 -10.683594 C 2.910156 -10.683594 0.675781 -8.535156 0.675781 -5.230469 C 0.675781 -1.871094 2.855469 0.265625 6.085938 0.265625 C 7.394531 0.265625 8.40625 -0.0429688 9.488281 -0.660156 L 9.488281 -1.351562 C 9.488281 -2.460938 9.503906 -3.472656 9.519531 -4.457031 L 10.445312 -4.570312 Z M 10.445312 -5.0625 "/></g></g></g></svg>